<?xml version="1.0" standalone="no"?>
<!DOCTYPE svg PUBLIC "-//W3C//DTD SVG 20010904//EN"
 "http://www.w3.org/TR/2001/REC-SVG-20010904/DTD/svg10.dtd">
<svg version="1.0" xmlns="http://www.w3.org/2000/svg"
 width="1015.000000pt" height="871.000000pt" viewBox="0 0 1015.000000 871.000000"
 preserveAspectRatio="xMidYMid meet">
<metadata>
Created by potrace 1.16, written by Peter Selinger 2001-2019
</metadata>
<g transform="translate(0.000000,871.000000) scale(0.100000,-0.100000)"
fill="#E44D26" stroke="none">
<path d="M1460 8179 c0 -11 25 -296 55 -632 30 -337 82 -918 115 -1292 62
-694 116 -1299 195 -2190 25 -275 94 -1058 155 -1740 136 -1536 136 -1535 141
-1539 2 -2 641 -179 1419 -395 l1416 -391 129 0 130 0 435 121 c577 160 1776
492 2270 629 119 32 136 40 142 61 4 13 28 263 53 554 26 292 69 780 96 1085
27 305 67 758 89 1005 22 248 52 576 65 730 36 396 107 1198 160 1788 141
1578 195 2192 195 2208 0 19 -94 19 -3630 19 l-3630 0 0 -21z m5906 -1521 c-3
-18 -22 -211 -41 -428 -19 -217 -38 -410 -41 -427 l-5 -33 -1734 0 c-954 0
-1735 -2 -1735 -4 0 -2 18 -201 40 -441 22 -240 40 -445 40 -456 0 -19 33 -19
1655 -19 910 0 1655 -4 1655 -8 0 -25 -250 -2785 -252 -2787 -6 -6 -1849 -515
-1863 -515 -20 0 -1849 511 -1857 519 -6 6 -128 1335 -128 1399 l0 32 455 0
455 0 4 -22 c3 -13 18 -173 33 -356 15 -183 30 -338 34 -344 3 -5 231 -70 505
-143 l499 -134 505 136 506 135 52 581 c28 319 50 582 49 584 -2 1 -710 6
-1573 9 l-1570 7 -122 1361 c-68 749 -123 1367 -122 1374 0 9 463 12 2280 12
l2281 0 -5 -32z"/>
</g>
</svg>
