<svg id="svg" version="1.1" xmlns="http://www.w3.org/2000/svg" xmlns:xlink="http://www.w3.org/1999/xlink" width="400" height="400" viewBox="0, 0, 400,400"><g id="svgg"><path id="path0" d="M309.889 100.556 C 309.767 100.678,309.664 112.715,309.661 127.306 C 309.654 155.451,309.590 156.847,307.995 163.628 C 302.852 185.490,289.134 199.345,268.519 203.498 C 261.575 204.898,257.476 204.993,204.261 204.997 C 149.228 205.000,150.589 204.959,142.679 206.886 C 118.916 212.676,105.157 228.574,103.345 252.333 C 102.752 260.102,102.885 351.255,103.494 354.747 C 107.396 377.124,130.386 392.691,167.333 397.974 C 188.662 401.023,221.919 400.739,242.964 397.327 C 274.649 392.189,294.814 379.075,298.194 361.409 C 298.699 358.774,298.908 318.163,298.450 311.718 L 298.234 308.667 249.783 308.667 L 201.333 308.667 201.333 302.674 L 201.333 296.681 273.417 296.568 C 352.403 296.443,346.146 296.603,353.790 294.520 C 377.093 288.172,393.476 266.726,399.478 234.713 C 399.929 232.302,400.000 227.504,400.000 199.152 L 400.000 166.378 399.172 161.893 C 392.837 127.592,375.236 104.924,351.761 100.830 C 348.781 100.310,310.386 100.059,309.889 100.556 M260.329 335.228 C 270.141 337.925,275.168 349.057,270.689 358.167 C 265.496 368.729,252.114 370.923,244.058 362.534 C 232.420 350.415,244.124 330.774,260.329 335.228 " stroke="none" fill="#fccc39" fill-rule="evenodd"></path><path id="path1" d="M170.333 0.526 C 135.335 4.317,113.124 14.930,105.457 31.525 C 102.929 36.997,103.000 36.027,103.000 64.887 L 103.000 90.667 151.667 90.667 L 200.333 90.667 200.333 96.839 L 200.333 103.012 128.750 103.001 C 66.879 102.991,56.760 103.057,54.167 103.486 C 25.003 108.312,6.912 131.693,0.769 172.500 C -0.250 179.265,-0.132 221.404,0.926 228.833 C 6.649 269.017,23.299 293.000,49.333 298.561 C 51.889 299.107,54.094 299.167,71.833 299.167 L 91.500 299.167 91.687 271.833 C 91.890 242.298,91.888 242.343,93.819 234.725 C 98.824 214.978,110.870 201.901,128.561 197.010 C 136.779 194.737,132.146 194.904,193.333 194.675 C 253.506 194.450,250.407 194.546,258.500 192.664 C 281.294 187.364,295.547 171.836,297.967 149.667 C 298.598 143.880,298.488 46.706,297.847 43.667 C 292.860 20.041,268.118 5.022,226.764 0.516 C 220.363 -0.181,176.791 -0.174,170.333 0.526 M149.486 32.177 C 162.243 35.500,166.447 50.599,157.194 59.864 C 148.969 68.101,135.732 65.780,130.691 55.218 C 124.858 42.995,136.452 28.782,149.486 32.177 " stroke="none" fill="#347cb0" fill-rule="evenodd"></path></g></svg>